<?xml version="1.0" encoding="UTF-8" standalone="no"?>
<!-- generated by Wolter.pl 1 -->
<svg xmlns="http://www.w3.org/2000/svg" version="1.1" id="wolter-1" width="2000" height="1200" viewBox="-300 -600 2000 1200">
	<circle id="focus-left"  cx="0"   cy="0" r="5" style="fill:black;stroke:none" />
	<circle id="focus-right" cx="500" cy="0" r="5" style="fill:black;stroke:none" />
	<path id="paraboloid-mirror-1" d="M 1574.5,570 Q 1175.5,500 874.5,430 L 874.5,460 Q 1175.5,530 1574.5,600 z" style="fill:lawngreen; stroke:none;" />
	<path id="paraboloid-mirror-2" d="M 1574.5,-570 Q 1175.5,-500 874.5,-430 L 874.5,-460 Q 1175.5,-530 1574.5,-600 z" style="fill:lawngreen; stroke:none;" />
	<path id="hyperboloid-mirror-1" d="M 594.093010681705,210 605.027385485183,220 616.120805806559,230 627.359245282264,240 638.73012632302,250 650.222160528097,260 661.82520563948,270 673.530137980496,280 685.328739128387,290 697.213595499958,300 709.178009539268,310 721.215921255261,320 733.321838943783,330 745.490778028321,340 757.718207057594,350 770,360 782.33239407139,370 782.33239407139,400 770,390 757.718207057594,380 745.490778028321,370 733.321838943783,360 721.215921255261,350 709.178009539268,340 697.213595499958,330 685.328739128387,320 673.530137980496,310 661.82520563948,300 650.222160528097,290 638.73012632302,280 627.359245282264,270 616.120805806559,260 605.027385485183,250 594.093010681705,240 z" style="fill:lawngreen; stroke:none;" />
	<path id="hyperboloid-mirror-2" d="M 594.093010681705,-210 605.027385485183,-220 616.120805806559,-230 627.359245282264,-240 638.73012632302,-250 650.222160528097,-260 661.82520563948,-270 673.530137980496,-280 685.328739128387,-290 697.213595499958,-300 709.178009539268,-310 721.215921255261,-320 733.321838943783,-330 745.490778028321,-340 757.718207057594,-350 770,-360 782.33239407139,-370 782.33239407139,-400 770,-390 757.718207057594,-380 745.490778028321,-370 733.321838943783,-360 721.215921255261,-350 709.178009539268,-340 697.213595499958,-330 685.328739128387,-320 673.530137980496,-310 661.82520563948,-300 650.222160528097,-290 638.73012632302,-280 627.359245282264,-270 616.120805806559,-260 605.027385485183,-250 594.093010681705,-240 z" style="fill:lawngreen; stroke:none;" />
	<path id="paraboloid" d="M 1750,-600 Q -1850,0 1750,600" style="fill:none; stroke:black; stroke-width:1; stroke-dasharray:10,10;" /><!-- x = 1/200 * y^2 - 50 -->
	<path id="hyperboloid-left" d="M -561.692333611969,590 -548.776842706675,580 -535.87530817554,570 -522.988428833906,560 -510.116950066092,550 -497.261667690776,540 -484.423432209089,530 -471.60315347919,520 -458.801805866774,510 -446.02043392737,500 -433.260158683678,490 -420.522184569608,480 -407.807807122347,470 -395.118421514824,460 -382.455532033676,450 -369.820762622371,440 -357.215868625904,430 -344.64274989274,420 -332.103465411815,410 -319.600249687835,400 -307.135531087365,390 -294.711952421747,380 -282.33239407139,370 -270,360 -257.718207057594,350 -245.490778028321,340 -233.321838943783,330 -221.215921255261,320 -209.178009539268,310 -197.213595499958,300 -185.328739128387,290 -173.530137980496,280 -161.82520563948,270 -150.222160528097,260 -138.73012632302,250 -127.359245282264,240 -116.120805806559,230 -105.027385485183,220 -94.093010681705,210 -83.3333333333334,200 -72.7658249842721,190 -62.4099870362662,180 -52.2875746334569,170 -42.4228293261508,160 -32.842712474619,150 -23.5771270491092,140 -14.6591098837227,130 -6.12496949731394,120 1.98566349682298,110 9.62991496906739,100 16.761924206188,90 23.3333333333333,80 29.2940619033753,70 34.5934077146198,60 39.181489322108,50 43.0110040498664,40 46.0392194562886,30 48.2300539943793,20 49.5560482883612,10 49.5560482883612,-10 48.2300539943793,-20 46.0392194562886,-30 43.0110040498664,-40 39.181489322108,-50 34.5934077146198,-60 29.2940619033753,-70 23.3333333333333,-80 16.761924206188,-90 9.62991496906739,-100 1.98566349682298,-110 -6.12496949731394,-120 -14.6591098837227,-130 -23.5771270491092,-140 -32.842712474619,-150 -42.4228293261508,-160 -52.2875746334569,-170 -62.4099870362662,-180 -72.7658249842721,-190 -83.3333333333334,-200 -94.093010681705,-210 -105.027385485183,-220 -116.120805806559,-230 -127.359245282264,-240 -138.73012632302,-250 -150.222160528097,-260 -161.82520563948,-270 -173.530137980496,-280 -185.328739128387,-290 -197.213595499958,-300 -209.178009539268,-310 -221.215921255261,-320 -233.321838943783,-330 -245.490778028321,-340 -257.718207057594,-350 -270,-360 -282.33239407139,-370 -294.711952421747,-380 -307.135531087365,-390 -319.600249687835,-400 -332.103465411815,-410 -344.64274989274,-420 -357.215868625904,-430 -369.820762622371,-440 -382.455532033676,-450 -395.118421514824,-460 -407.807807122347,-470 -420.522184569608,-480 -433.260158683678,-490 -446.02043392737,-500 -458.801805866774,-510 -471.60315347919,-520 -484.423432209089,-530 -497.261667690776,-540 -510.116950066092,-550 -522.988428833906,-560 -535.87530817554,-570 -548.776842706675,-580 -561.692333611969,-590" style="fill:none; stroke:black; stroke-width:1; stroke-dasharray:10,10;" /><!-- ((x-250)/200)^2 - (y/150)^2 = 1 -->
	<path id="hyperboloid-right" d="M 1061.69233361197,590 1048.77684270668,580 1035.87530817554,570 1022.98842883391,560 1010.11695006609,550 997.261667690776,540 984.423432209089,530 971.60315347919,520 958.801805866774,510 946.02043392737,500 933.260158683678,490 920.522184569608,480 907.807807122347,470 895.118421514824,460 882.455532033676,450 869.820762622371,440 857.215868625904,430 844.64274989274,420 832.103465411815,410 819.600249687835,400 807.135531087365,390 794.711952421747,380 782.33239407139,370 770,360 757.718207057594,350 745.490778028321,340 733.321838943783,330 721.215921255261,320 709.178009539268,310 697.213595499958,300 685.328739128387,290 673.530137980496,280 661.82520563948,270 650.222160528097,260 638.73012632302,250 627.359245282264,240 616.120805806559,230 605.027385485183,220 594.093010681705,210 583.333333333333,200 572.765824984272,190 562.409987036266,180 552.287574633457,170 542.422829326151,160 532.842712474619,150 523.577127049109,140 514.659109883723,130 506.124969497314,120 498.014336503177,110 490.370085030933,100 483.238075793812,90 476.666666666667,80 470.705938096625,70 465.40659228538,60 460.818510677892,50 456.988995950134,40 453.960780543711,30 451.769946005621,20 450.443951711639,10 450.443951711639,-10 451.769946005621,-20 453.960780543711,-30 456.988995950134,-40 460.818510677892,-50 465.40659228538,-60 470.705938096625,-70 476.666666666667,-80 483.238075793812,-90 490.370085030933,-100 498.014336503177,-110 506.124969497314,-120 514.659109883723,-130 523.577127049109,-140 532.842712474619,-150 542.422829326151,-160 552.287574633457,-170 562.409987036266,-180 572.765824984272,-190 583.333333333333,-200 594.093010681705,-210 605.027385485183,-220 616.120805806559,-230 627.359245282264,-240 638.73012632302,-250 650.222160528097,-260 661.82520563948,-270 673.530137980496,-280 685.328739128387,-290 697.213595499958,-300 709.178009539268,-310 721.215921255261,-320 733.321838943783,-330 745.490778028321,-340 757.718207057594,-350 770,-360 782.33239407139,-370 794.711952421747,-380 807.135531087365,-390 819.600249687835,-400 832.103465411815,-410 844.64274989274,-420 857.215868625904,-430 869.820762622371,-440 882.455532033676,-450 895.118421514824,-460 907.807807122347,-470 920.522184569608,-480 933.260158683678,-490 946.02043392737,-500 958.801805866774,-510 971.60315347919,-520 984.423432209089,-530 997.261667690776,-540 1010.11695006609,-550 1022.98842883391,-560 1035.87530817554,-570 1048.77684270668,-580 1061.69233361197,-590" style="fill:none; stroke:black; stroke-width:1; stroke-dasharray:10,10;" />
	<path id="ray-0" d="M 1700,550 L 1462.5,550 619.411764705882,232.941176470588 500,0" style="fill:none; stroke:black; stroke-width:3;" />
	<path id="ray2-0" d="M 619.411764705882,232.941176470588 L 0,0" style="fill:none; stroke:gray; stroke-width:1; stroke-dasharray:10,4,2,4;" />
	<path id="ray-0b" d="M 1700,-550 L 1462.5,-550 619.411764705882,-232.941176470588 500,0" style="fill:none; stroke:black; stroke-width:3;" />
	<path id="ray2-0b" d="M 619.411764705882,-232.941176470588 L 0,0" style="fill:none; stroke:gray; stroke-width:1; stroke-dasharray:10,4,2,4;" />
	<path id="ray-1" d="M 1700,500 L 1200,500 675,281.25 500,0" style="fill:none; stroke:black; stroke-width:3;" />
	<path id="ray2-1" d="M 675,281.25 L 0,0" style="fill:none; stroke:gray; stroke-width:1; stroke-dasharray:10,4,2,4;" />
	<path id="ray-1b" d="M 1700,-500 L 1200,-500 675,-281.25 500,0" style="fill:none; stroke:black; stroke-width:3;" />
	<path id="ray2-1b" d="M 675,-281.25 L 0,0" style="fill:none; stroke:gray; stroke-width:1; stroke-dasharray:10,4,2,4;" />
	<path id="ray-2" d="M 1700,450 L 962.5,450 770,360 500,0" style="fill:none; stroke:black; stroke-width:3;" />
	<path id="ray2-2" d="M 770,360 L 0,0" style="fill:none; stroke:gray; stroke-width:1; stroke-dasharray:10,4,2,4;" />
	<path id="ray-2b" d="M 1700,-450 L 962.5,-450 770,-360 500,0" style="fill:none; stroke:black; stroke-width:3;" />
	<path id="ray2-2b" d="M 770,-360 L 0,0" style="fill:none; stroke:gray; stroke-width:1; stroke-dasharray:10,4,2,4;" />
	<g id="hyperboloid-text" transform="translate(300 -525)" text-anchor="end" style="font-family:sans serif; font-size:75px; fill:red;">
		<switch>
			<text systemLanguage="af">Hiperboloïed</text>
			<text systemLanguage="ar">سطح زائد</text>
			<text systemLanguage="bs">Hiperboloid</text>
			<text systemLanguage="ca">Hiperboloide</text>
			<text systemLanguage="ckb">ڕووی بڕگەزیادی</text>
			<text systemLanguage="cs">Hyperboloid</text>
			<text systemLanguage="de">Hyperboloid</text>
			<text systemLanguage="en">Hyperboloid</text>
			<text systemLanguage="es">Hiperboloide</text>
			<text systemLanguage="et">Hüperboloid</text>
			<text systemLanguage="eu">Hiperboloide</text>
			<text systemLanguage="fa">هذلولی‌گون</text>
			<text systemLanguage="fi">Hyperboloidi</text>
			<text systemLanguage="fr">Hyperboloïde</text>
			<text systemLanguage="he">היפרבולואיד</text>
			<text systemLanguage="hr">Hiperboloid</text>
			<text systemLanguage="hu">Hiperboloid</text>
			<text systemLanguage="hy">Հիպերբոլոիդ</text>
			<text systemLanguage="io">Hiperboloido</text>
			<text systemLanguage="it">Iperboloide</text>
			<text systemLanguage="ja">双曲面</text>
			<text systemLanguage="ka">ჰიპერბოლოიდი</text>
			<text systemLanguage="kk">Гиперболоид</text>
			<text systemLanguage="ky">Гиперболоид</text>
			<text systemLanguage="nl">Hyperboloïde</text>
			<text systemLanguage="nn">Hyperboloide</text>
			<text systemLanguage="no">Hyperboloide</text>
			<text systemLanguage="pl">Hiperboloida</text>
			<text systemLanguage="pt">Hiperboloide</text>
			<text systemLanguage="ro">Hiperboloid</text>
			<text systemLanguage="ru">Гиперболоид</text>
			<text systemLanguage="scn">Iperbuloidi</text>
			<text systemLanguage="sh">Hiperboloid</text>
			<text systemLanguage="sl">Hiperboloid</text>
			<text systemLanguage="sq">Hiperboloidi</text>
			<text systemLanguage="sr">Хиперболоид</text>
			<text systemLanguage="sv">Hyperboloid</text>
			<text systemLanguage="uk">Гіперболоїд</text>
			<text systemLanguage="zh">雙曲面</text>
			<text>Hyperboloid</text>
		</switch>
  </g>
	<path id="hyberboloid-left-arrow" d="M 50,-495 L -161.82520563948,-270" style="stroke:red; stroke-width:2; fill:none;" />
	<path id="hyberboloid-left-arrow-head" d="M 0,0 L -37.5,-15 -37.5,15 z" style="stroke:none; fill:red;" transform=" translate(-161.82520563948,-270) rotate(136.7275361925)" />
	<path id="hyberboloid-right-arrow" d="M 320,-545 L 960,-510.9366399075" style="stroke:red; stroke-width:2; fill:none;" />
	<path id="hyberboloid-right-arrow-head" d="M 0,0 L -37.5,-15 -37.5,15 z" style="stroke:none; fill:red;" transform=" translate(960,-510.9366399075) rotate(3.0466359162)" />
	<g id="paraboloid-text" transform="translate(650 -410)" text-anchor="end" style="font-family:sans serif; font-size:75px; fill:red;">
		<switch>
			<text systemLanguage="ar">سطح مكافئ</text>
			<text systemLanguage="bn">প্যারাবলোইড</text>
			<text systemLanguage="bs">Paraboloid</text>
			<text systemLanguage="ca">Paraboloide</text>
			<text systemLanguage="ckb">تەنی کەوانەبڕ</text>
			<text systemLanguage="cs">Paraboloid</text>
			<text systemLanguage="de">Paraboloid</text>
			<text systemLanguage="en">Paraboloid</text>
			<text systemLanguage="eo">Paraboloido</text>
			<text systemLanguage="es">Paraboloide</text>
			<text systemLanguage="et">Paraboloid</text>
			<text systemLanguage="eu">Paraboloide</text>
			<text systemLanguage="fa">سهمی‌گون</text>
			<text systemLanguage="fi">Paraboloidi</text>
			<text systemLanguage="fr">Paraboloïde</text>
			<text systemLanguage="he">פרבולואיד</text>
			<text systemLanguage="hi">परवलयज</text>
			<text systemLanguage="hr">Paraboloid</text>
			<text systemLanguage="hy" transform="translate(50 0)">Պարաբոլուդներ</text>
			<text systemLanguage="io">Paraboloido</text>
			<text systemLanguage="it">Paraboloide</text>
			<text systemLanguage="ja" transform="translate(-100 0)">放物面</text>
			<text systemLanguage="ka">პარაბოლოიდი</text>
			<text systemLanguage="kk">Параболоидтар</text>
			<text systemLanguage="lt">Paraboloidas</text>
			<text systemLanguage="lv">Paraboloīds</text>
			<text systemLanguage="nl">Paraboloïde</text>
			<text systemLanguage="nn">Paraboloide</text>
			<text systemLanguage="no">Paraboloide</text>
			<text systemLanguage="pl">Paraboloida</text>
			<text systemLanguage="pt">Paraboloide</text>
			<text systemLanguage="ro">Paraboloid</text>
			<text systemLanguage="ru">Параболоид</text>
			<text systemLanguage="scn">Parabbuloidi</text>
			<text systemLanguage="sh">Paraboloid</text>
			<text systemLanguage="sl">Paraboloid</text>
			<text systemLanguage="sq">Paraboloidi</text>
			<text systemLanguage="sr">Paraboloid</text>
			<text systemLanguage="sv">Paraboloid</text>
			<text systemLanguage="ta">பரவளையவுரு</text>
			<text systemLanguage="uk">Параболоїд</text>
			<text systemLanguage="zh" transform="translate(-100 0)">抛物面</text>
			<text>Paraboloid</text>
		</switch>
  </g>
	<path id="paraboloid-arrow" d="M 400,-390 L 400,-300" style="stroke:red; stroke-width:2; fill:none;" />
	<path id="paraboloid-arrow-head" d="M 0,0 L -37.5,-15 -37.5,15 z" style="stroke:none; fill:red;" transform=" translate(400,-300) rotate(90)" />
	<g id="focus-text" transform="translate(250 425)" text-anchor="middle" style="font-family:sans serif; font-size:75px; fill:red;">
		<switch>
			<text systemLanguage="en">Foci</text>
			<text systemLanguage="es">Focos</text>
			<text systemLanguage="he">מוקדים</text>
			<text systemLanguage="hy">ֆոկուսներ</text>
			<text systemLanguage="ja">焦点</text>
			<text systemLanguage="ka">ფოკუსები</text>
			<text systemLanguage="ru">Фокусы</text>
			<text systemLanguage="uk">Фокуси</text>
			<text>Foci</text>
		</switch>
  </g>
	<path id="focus-left-arrow" d="M 210,350 L 0,0" style="stroke:red; stroke-width:2; fill:none;" />
	<path id="focus-left-arrow-head" d="M 0,0 L -37.5,-15 -37.5,15 z" style="stroke:none; fill:red;" transform=" translate(0,0) rotate(-120.9637565321)" />
	<path id="focus-right-arrow" d="M 290,350 L 500,0" style="stroke:red; stroke-width:2; fill:none;" />
	<path id="focus-right-arrow-head" d="M 0,0 L -37.5,-15 -37.5,15 z" style="stroke:none; fill:red;" transform=" translate(500,0) rotate(-59.0362434679)" />
	<g id="mirror-text" transform="translate(890 555)" text-anchor="end" style="font-family:sans serif; font-size:75px; fill:red;">
		<switch>
			<text systemLanguage="en">Reflective surfaces</text>
			<text systemLanguage="es">Superficies reflectivos</text>
			<text systemLanguage="he">משטחים רפלקטיביים</text>
			<text systemLanguage="ru">Отражающие поверхности</text>
			<text systemLanguage="uk">Відбивні поверхні</text>
			<text>Reflective surfaces</text>
		</switch>
  </g>
	<path id="mirror-arrow-par" d="M 680,485 L 715,314.8437112283" style="stroke:red; stroke-width:2; fill:none;" /><!-- keep enough space above the text to fit large chars line Chinese -->
	<path id="mirror-arrow-par-head" d="M 0,0 L -37.5,-15 -37.5,15 z" style="stroke:none; fill:red;" transform=" translate(715,314.8437112283) rotate(-78.0348738902)" />
	<path id="mirror-arrow-hyp" d="M 910,535 L 1070,473.286382648" style="stroke:red; stroke-width:2; fill:none;" />
	<path id="mirror-arrow-hyp-head" d="M 0,0 L -37.5,-15 -37.5,15 z" style="stroke:none; fill:red;" transform=" translate(1070,473.286382648) rotate(-21.0921311623)" />
</svg>
